<?xml version="1.0" standalone="no"?>
<!DOCTYPE svg PUBLIC "-//W3C//DTD SVG 20010904//EN"
 "http://www.w3.org/TR/2001/REC-SVG-20010904/DTD/svg10.dtd">
<svg version="1.0" xmlns="http://www.w3.org/2000/svg"
 width="700.000000pt" height="700.000000pt" viewBox="0 0 700.000000 700.000000"
 preserveAspectRatio="xMidYMid meet">
<metadata>
Created by potrace 1.14, written by Peter Selinger 2001-2017
</metadata>
<g transform="translate(0.000000,700.000000) scale(0.100000,-0.100000)"
fill="#000000" stroke="none">
<path d="M5880 6978 c-70 -36 -177 -150 -284 -303 -173 -247 -241 -299 -571
-435 -82 -34 -184 -80 -225 -103 -389 -209 -827 -514 -1115 -777 -155 -141
-334 -320 -421 -419 -22 -24 -48 -54 -59 -65 -38 -40 -161 -192 -236 -291
-217 -287 -404 -594 -563 -920 -65 -134 -175 -384 -191 -434 -7 -23 -10 -23
-74 -16 -156 16 -206 19 -381 19 -164 0 -283 -6 -345 -18 -11 -2 -40 -7 -65
-11 -617 -101 -1101 -456 -1275 -935 -15 -41 -28 -83 -30 -93 -2 -10 -6 -26
-9 -35 -3 -9 -8 -33 -11 -52 -3 -19 -9 -60 -14 -90 -12 -72 -6 -377 8 -460 19
-110 21 -123 38 -190 27 -110 82 -260 135 -367 205 -417 537 -692 1028 -853
167 -55 384 -101 552 -117 159 -15 553 -7 643 12 22 5 62 12 115 21 186 30
459 125 634 222 148 82 278 196 379 332 27 36 56 75 66 88 10 13 51 72 92 132
41 60 78 109 82 110 4 0 36 -23 70 -50 34 -28 67 -55 74 -60 28 -23 205 -111
278 -139 91 -34 243 -79 295 -87 19 -3 51 -9 70 -14 19 -4 62 -11 95 -15 32
-4 67 -9 77 -10 72 -14 373 -21 518 -11 88 6 204 17 220 21 8 3 34 7 57 10 24
2 78 12 120 21 43 9 88 18 99 20 145 27 461 149 599 231 126 76 268 200 357
313 138 177 247 443 277 680 10 74 8 370 -2 387 -3 4 -8 31 -11 58 -21 160
-111 400 -213 568 -146 242 -401 485 -635 603 -127 65 -341 134 -458 149 -138
17 -184 21 -267 20 l-93 -1 -5 30 c-3 17 -7 44 -10 60 -8 56 -18 271 -18 411
0 180 10 347 29 475 3 19 7 51 10 70 9 70 47 247 74 350 111 407 289 731 535
975 92 91 117 110 295 213 291 169 337 207 345 282 8 82 -37 172 -135 271
-137 137 -298 224 -440 235 -55 4 -72 1 -110 -18z m-683 -1142 c-35 -53 -139
-260 -187 -372 -28 -65 -55 -128 -60 -139 -55 -126 -132 -380 -174 -576 -71
-327 -89 -683 -51 -974 13 -98 15 -135 8 -135 -49 0 -306 -11 -333 -14 -453
-55 -766 -234 -972 -555 -26 -41 -57 -99 -70 -128 -17 -38 -28 -53 -43 -53
-11 0 -65 25 -120 55 -260 143 -333 174 -454 190 -19 2 -36 7 -38 9 -19 19
200 489 324 696 224 374 425 632 738 946 318 319 649 585 1055 847 123 79 385
235 389 231 2 -2 -4 -14 -12 -28z"/>
</g>
</svg>
